<svg width="49" height="41" viewBox="0 0 49 41" fill="none" xmlns="http://www.w3.org/2000/svg">
<path d="M20.4 0.699994C20.9 2.19999 21.15 3.44999 21.15 4.45C21.15 5.35 21 6.55 20.7 8.05C14 8.05 10.65 11.5 10.65 18.4C10.65 20.9 11.95 22.3 14.55 22.6C18.35 22.9 20.25 25.35 20.25 29.95C20.25 33.45 19.4 36.15 17.7 38.05C16.1 39.85 13.15 40.75 8.85 40.75C2.95 40.75 3.57628e-07 36.75 3.57628e-07 28.75C3.57628e-07 20.75 1.6 14.1 4.8 8.8C8 3.39999 13.2 0.699994 20.4 0.699994ZM47.55 0.699994C48.05 2.19999 48.3 3.44999 48.3 4.45C48.3 5.35 48.15 6.55 47.85 8.05C41.15 8.05 37.8 11.5 37.8 18.4C37.8 20.9 39.1 22.3 41.7 22.6C45.5 22.9 47.4 25.35 47.4 29.95C47.4 33.45 46.55 36.15 44.85 38.05C43.25 39.85 40.3 40.75 36 40.75C30.1 40.75 27.15 36.75 27.15 28.75C27.15 20.75 28.75 14.1 31.95 8.8C35.15 3.39999 40.35 0.699994 47.55 0.699994Z" fill="white"/>
</svg>
