<svg width="80" height="80" viewBox="0 0 80 80" fill="none" xmlns="http://www.w3.org/2000/svg">
<g clip-path="url(#clip0_97_12801)">
<path d="M15.5223 60.2983H3.58203V72.2387H15.5223V60.2983Z" fill="#0052B4"/>
<path d="M80.0002 56.7163H27.4629V75.8208H80.0002V56.7163Z" fill="#473BF0"/>
<path d="M80.0002 30.4478H27.4629V49.5523H80.0002V30.4478Z" fill="#473BF0"/>
<path d="M80.0002 4.1792H27.4629V23.2837H80.0002V4.1792Z" fill="#473BF0"/>
<path d="M80 56.7163H53.7314V75.8208H80V56.7163Z" fill="#6158E1"/>
<path d="M80 30.4478H53.7314V49.5523H80V30.4478Z" fill="#6158E1"/>
<path d="M80 4.1792H53.7314V23.2837H80V4.1792Z" fill="#6158E1"/>
<path d="M15.5223 7.76123H3.58203V19.7015H15.5223V7.76123Z" fill="white"/>
<path d="M19.1045 23.2837H0V4.1792H19.1045V23.2837ZM7.16422 16.1195H11.9403V11.3434H7.16422V16.1195Z" fill="#006DF0"/>
<path d="M9.55225 4.1792V11.3434H11.9404V16.1195H9.55225V23.2837H19.1046V4.1792H9.55225Z" fill="#0052B4"/>
<path d="M15.5223 34.0298H3.58203V45.9701H15.5223V34.0298Z" fill="white"/>
<path d="M19.1045 49.5521H0V30.4478H19.1045V49.5521ZM7.16422 42.3881H11.9403V37.612H7.16422V42.3881Z" fill="#006DF0"/>
<path d="M9.55225 30.4478V37.6118H11.9404V42.3881H9.55225V49.5521H19.1046V30.4478H9.55225Z" fill="#0052B4"/>
</g>
<defs>
<clipPath id="clip0_97_12801">
<rect width="80" height="80" fill="white"/>
</clipPath>
</defs>
</svg>
