<svg width="100" height="100" viewBox="0 0 100 100" fill="none" xmlns="http://www.w3.org/2000/svg">
<path d="M64.8571 87.6266H48.8813C47.3593 87.6266 46.1274 86.3969 46.1274 84.8749V14.4409C46.1274 12.9211 47.3593 11.687 48.8813 11.687H64.8571C66.3791 11.687 67.611 12.9211 67.611 14.4409C67.611 15.9606 66.3791 17.1925 64.8571 17.1925H51.6329V82.1211H64.8571C66.3791 82.1211 67.611 83.3551 67.611 84.8749C67.6099 86.3969 66.378 87.6266 64.8571 87.6266Z" fill="#647F94"/>
<path d="M64.8575 52.4098H35.352C33.83 52.4098 32.5981 51.1779 32.5981 49.6559C32.5981 48.134 33.83 46.9043 35.352 46.9043H64.8575C66.3795 46.9043 67.6113 48.134 67.6113 49.6559C67.6113 51.1779 66.3784 52.4098 64.8575 52.4098Z" fill="#647F94"/>
<path d="M76.3198 71.5791C68.9835 71.5791 63.0176 77.5461 63.0176 84.878C63.0176 92.2099 68.9846 98.1747 76.3198 98.1747C83.6538 98.1747 89.6209 92.2099 89.6209 84.878C89.6209 77.5461 83.6538 71.5791 76.3198 71.5791Z" fill="#473BF0"/>
<path d="M76.3198 36.4868C68.9835 36.4868 63.0176 42.4517 63.0176 49.7857C63.0176 57.1154 68.9846 63.0802 76.3198 63.0802C83.6538 63.0802 89.6209 57.1154 89.6209 49.7857C89.6209 42.4517 83.6538 36.4868 76.3198 36.4868Z" fill="#473BF0"/>
<path d="M76.3198 27.7362C83.6538 27.7362 89.6209 21.7714 89.6209 14.4417C89.6209 7.10766 83.6538 1.14062 76.3198 1.14062C68.9835 1.14062 63.0176 7.10766 63.0176 14.4417C63.0176 21.7725 68.9835 27.7362 76.3198 27.7362Z" fill="#473BF0"/>
<path d="M35.3507 32.4175H11.7507C10.2309 32.4175 8.99902 33.6515 8.99902 35.1713V64.3933C8.99902 65.9131 10.2309 67.1472 11.7507 67.1472H35.3518C36.8716 67.1472 38.1034 65.9131 38.1034 64.3933V35.1713C38.1023 33.6515 36.8705 32.4175 35.3507 32.4175Z" fill="#1A0F91"/>
</svg>
