<svg width="120" height="120" viewBox="0 0 120 120" fill="none" xmlns="http://www.w3.org/2000/svg">
<path d="M30 52.5H45.0787C48.0415 52.5 50.883 53.677 52.978 55.772C55.073 57.867 56.25 60.7085 56.25 63.6713V67.5H41.1713C38.2085 67.5 35.367 66.323 33.272 64.228C31.177 62.133 30 59.2915 30 56.3287V52.5Z" fill="#473BF0"/>
<path d="M78.8287 67.5H63.75V63.6713C63.75 60.7085 64.927 57.867 67.022 55.772C69.117 53.677 71.9585 52.5 74.9213 52.5H90V56.3287C90 59.2915 88.823 62.133 86.728 64.228C84.633 66.323 81.7915 67.5 78.8287 67.5Z" fill="#473BF0"/>
<path d="M86.25 52.5V52.5787C86.2495 55.5414 85.0724 58.3826 82.9775 60.4775C80.8826 62.5724 78.0414 63.7495 75.0788 63.75H63.75V41.25C63.75 40.2554 63.3549 39.3016 62.6517 38.5984C61.9484 37.8951 60.9946 37.5 60 37.5C59.0054 37.5 58.0516 37.8951 57.3484 38.5984C56.6451 39.3016 56.25 40.2554 56.25 41.25V63.75H44.9213C41.9586 63.7495 39.1174 62.5724 37.0225 60.4775C34.9276 58.3826 33.7505 55.5414 33.75 52.5787V52.5H30V56.3288C30.0005 59.2914 31.1776 62.1326 33.2725 64.2275C35.3674 66.3224 38.2086 67.4995 41.1713 67.5H56.25V80.625H63.75V67.5H78.8288C81.7914 67.4995 84.6326 66.3224 86.7275 64.2275C88.8224 62.1326 89.9995 59.2914 90 56.3288V52.5H86.25Z" fill="#1A0F91"/>
<path d="M60 43.125C70.3553 43.125 78.75 34.7303 78.75 24.375C78.75 14.0197 70.3553 5.625 60 5.625C49.6447 5.625 41.25 14.0197 41.25 24.375C41.25 34.7303 49.6447 43.125 60 43.125Z" fill="#473BF0"/>
<path d="M78.7502 114.375H41.2502L35.2539 86.3926H84.7464L78.7502 114.375Z" fill="#CFCFD9"/>
<path d="M50.1319 114.375H41.25L35.25 86.3926H84.75C83.0529 94.314 78.69 101.414 72.3897 106.506C66.0895 111.599 58.233 114.376 50.1319 114.375Z" fill="#F0F0F0"/>
<path d="M90 76.875H30V88.125H90V76.875Z" fill="white"/>
<path d="M90 76.875H82.5V88.125H90V76.875Z" fill="#CFCFD9"/>
<path d="M56.25 103.125H52.5V106.875H56.25V103.125Z" fill="#444444"/>
<path d="M67.5 103.125H63.75V106.875H67.5V103.125Z" fill="#444444"/>
<path d="M87.3483 42.0261C86.6451 41.3228 86.25 40.369 86.25 39.3744C86.25 38.3799 86.6451 37.426 87.3483 36.7228L90 34.0711L92.6517 36.7228C93.3549 37.426 93.75 38.3799 93.75 39.3744C93.75 40.369 93.3549 41.3228 92.6517 42.0261C91.9484 42.7293 90.9946 43.1244 90 43.1244C89.0054 43.1244 88.0516 42.7293 87.3483 42.0261Z" fill="#473BF0"/>
<path d="M87.3483 21.4011C86.6451 20.6978 86.25 19.744 86.25 18.7494C86.25 17.7549 86.6451 16.801 87.3483 16.0978L90 13.4461L92.6517 16.0978C93.3549 16.801 93.75 17.7549 93.75 18.7494C93.75 19.744 93.3549 20.6978 92.6517 21.4011C91.9484 22.1043 90.9946 22.4994 90 22.4994C89.0054 22.4994 88.0516 22.1043 87.3483 21.4011Z" fill="#473BF0"/>
<path d="M29.2224 34.2058C28.5191 33.5025 28.124 32.5487 28.124 31.5541C28.124 30.5596 28.5191 29.6057 29.2224 28.9025L31.874 26.2508L34.5257 28.9025C35.2289 29.6057 35.624 30.5596 35.624 31.5541C35.624 32.5487 35.2289 33.5025 34.5257 34.2058C33.8224 34.909 32.8686 35.3041 31.874 35.3041C30.8795 35.3041 29.9256 34.909 29.2224 34.2058Z" fill="#473BF0"/>
<path d="M29.2214 13.5813C28.5181 12.878 28.123 11.9242 28.123 10.9296C28.123 9.93505 28.5181 8.98122 29.2214 8.27796L31.873 5.62631L34.5247 8.27796C35.228 8.98122 35.623 9.93505 35.623 10.9296C35.623 11.9242 35.228 12.878 34.5247 13.5813C33.8214 14.2845 32.8676 14.6796 31.873 14.6796C30.8785 14.6796 29.9247 14.2845 29.2214 13.5813Z" fill="#473BF0"/>
<path d="M60 39.375H56.25V63.75H60V39.375Z" fill="#473BF0"/>
<path d="M71.2346 9.39014C73.949 12.9956 75.2697 17.46 74.9539 21.9619C74.6381 26.4638 72.7069 30.7001 69.5157 33.8912C66.3246 37.0824 62.0883 39.0135 57.5864 39.3294C53.0845 39.6452 48.6201 38.3244 45.0146 35.6101C46.623 37.7621 48.6754 39.543 51.0326 40.832C53.3898 42.1209 55.9967 42.8878 58.6764 43.0805C61.3561 43.2732 64.0458 42.8873 66.5632 41.9489C69.0806 41.0105 71.3667 39.5417 73.2665 37.6419C75.1662 35.7422 76.635 33.4561 77.5734 30.9387C78.5118 28.4213 78.8977 25.7315 78.705 23.0519C78.5123 20.3722 77.7454 17.7653 76.4565 15.4081C75.1675 13.0509 73.3867 10.9985 71.2346 9.39014Z" fill="#1A0F91"/>
<path d="M58.7702 19.6687C58.565 19.4978 58.3978 19.2861 58.279 19.0469C58.1603 18.8078 58.0926 18.5465 58.0805 18.2798C58.0683 18.013 58.1118 17.7467 58.2083 17.4977C58.3048 17.2488 58.4521 17.0226 58.6408 16.8337C59.0073 16.4846 59.494 16.2898 60.0002 16.2898C60.5064 16.2898 60.9931 16.4846 61.3596 16.8337L64.2996 19.7737L66.9508 17.1225L64.0108 14.1806C63.4079 13.5848 62.6777 13.1335 61.8752 12.8606V5.71875C61.2583 5.65875 60.6339 5.625 60.0002 5.625C59.3664 5.625 58.7421 5.65875 58.1252 5.71875V12.8587C57.3221 13.1325 56.5914 13.5844 55.9877 14.1806C55.4303 14.7379 54.9951 15.4052 54.7098 16.14C54.4245 16.8747 54.2954 17.6609 54.3307 18.4483C54.366 19.2357 54.5649 20.0071 54.9147 20.7134C55.2646 21.4197 55.7577 22.0454 56.3627 22.5506L61.2246 26.6025C61.4295 26.7733 61.5967 26.9848 61.7155 27.2237C61.8342 27.4626 61.9019 27.7237 61.9142 27.9902C61.9266 28.2567 61.8833 28.5228 61.7872 28.7717C61.691 29.0205 61.5441 29.2466 61.3558 29.4356C60.9948 29.7959 60.5056 29.9983 59.9955 29.9983C59.4854 29.9983 58.9962 29.7959 58.6352 29.4356L55.6952 26.4956L53.0439 29.1469L55.9839 32.0888C56.5873 32.6822 57.3176 33.131 58.1196 33.4012V43.0312C58.7364 43.0913 59.3608 43.125 59.9946 43.125C60.6283 43.125 61.2527 43.0913 61.8696 43.0312V33.4088C62.6718 33.1377 63.4024 32.6891 64.0071 32.0963C64.5642 31.5388 64.9992 30.8715 65.2843 30.1368C65.5694 29.402 65.6984 28.616 65.6632 27.8287C65.6279 27.0413 65.4291 26.27 65.0794 25.5637C64.7297 24.8574 64.2368 24.2316 63.6321 23.7262L58.7702 19.6687Z" fill="white"/>
<path d="M90 75H30C29.5027 75 29.0258 75.1975 28.6742 75.5492C28.3225 75.9008 28.125 76.3777 28.125 76.875V88.125C28.125 88.6223 28.3225 89.0992 28.6742 89.4508C29.0258 89.8025 29.5027 90 30 90H34.1081L39.4162 114.769C39.5063 115.188 39.7375 115.564 40.0712 115.834C40.405 116.103 40.821 116.25 41.25 116.25H78.75C79.179 116.25 79.595 116.103 79.9288 115.834C80.2625 115.564 80.4937 115.188 80.5838 114.769L85.8919 90H90C90.4973 90 90.9742 89.8025 91.3258 89.4508C91.6775 89.0992 91.875 88.6223 91.875 88.125V76.875C91.875 76.3777 91.6775 75.9008 91.3258 75.5492C90.9742 75.1975 90.4973 75 90 75ZM77.2331 112.5H42.7669L37.9444 90H82.0556L77.2331 112.5ZM88.125 86.25H31.875V78.75H88.125V86.25Z" fill="#473BF0"/>
<path d="M56.25 103.125H52.5V106.875H56.25V103.125Z" fill="black"/>
<path d="M67.5 103.125H63.75V106.875H67.5V103.125Z" fill="black"/>
</svg>
