<svg width="100" height="100" viewBox="0 0 100 100" fill="none" xmlns="http://www.w3.org/2000/svg">
<path d="M58.0762 78.1641H26.6016C25.5566 78.1641 24.707 79.0137 24.707 80.0586C24.707 81.1035 25.5566 81.9531 26.6016 81.9531H58.0762C59.1211 81.9531 59.9707 81.1035 59.9707 80.0586C59.9707 79.0039 59.1211 78.1641 58.0762 78.1641Z" fill="#1A0F91"/>
<path d="M89.1504 75.332V79.1406H94.5312C93.7402 76.9238 91.6309 75.332 89.1504 75.332Z" fill="#E6E6E6"/>
<path d="M79.6484 66.0059V22.9687C79.6484 21.3965 78.3691 20.127 76.8066 20.127H7.87109C6.29883 20.127 5.0293 21.4062 5.0293 22.9687V66.0059C5.0293 67.5781 6.30859 68.8477 7.87109 68.8477H76.8066C78.3789 68.8574 79.6484 67.5781 79.6484 66.0059ZM75.3613 61.9043C75.3613 63.4668 74.082 64.7461 72.5195 64.7461H12.168C10.6055 64.7461 9.32617 63.4668 9.32617 61.9043V27.0801C9.32617 25.5176 10.6055 24.2383 12.168 24.2383H72.5195C74.082 24.2383 75.3613 25.5176 75.3613 27.0801V61.9043Z" fill="white"/>
<path d="M72.5195 24.2383H12.168C10.6055 24.2383 9.32617 25.5176 9.32617 27.0801V61.9043C9.32617 63.4668 10.6055 64.7461 12.168 64.7461H72.5195C74.082 64.7461 75.3613 63.4668 75.3613 61.9043V27.0801C75.3613 25.5176 74.082 24.2383 72.5195 24.2383ZM21.416 27.3828C21.416 27.2266 21.543 27.1094 21.6895 27.1094H27.6758C27.832 27.1094 27.9492 27.2363 27.9492 27.3828V29.0918C27.9492 29.248 27.8223 29.3652 27.6758 29.3652H21.6895C21.5332 29.3652 21.416 29.2383 21.416 29.0918V27.3828ZM18.457 27.041C19.1016 27.041 19.6191 27.5586 19.6191 28.2031C19.6191 28.8477 19.1016 29.3652 18.457 29.3652C17.8125 29.3652 17.2949 28.8477 17.2949 28.2031C17.2949 27.5586 17.8223 27.041 18.457 27.041ZM14.6484 27.041C15.293 27.041 15.8105 27.5586 15.8105 28.2031C15.8105 28.8477 15.293 29.3652 14.6484 29.3652C14.0039 29.3652 13.4863 28.8477 13.4863 28.2031C13.4863 27.5586 14.0039 27.041 14.6484 27.041ZM37.8223 44.7852C37.8223 51.4063 32.4316 56.7969 25.8105 56.7969C19.1895 56.7969 13.7988 51.4063 13.7988 44.7852C13.7988 38.1641 19.1895 32.7734 25.8105 32.7734H26.7578V43.8379H37.8223V44.7852ZM29.0234 41.0059V31.7578C34.1309 31.7578 38.2715 35.8984 38.2715 41.0059H29.0234ZM65.5078 55.5469H51.7676C51.2402 55.5469 50.8203 55.1269 50.8203 54.5996C50.8203 54.0723 51.2402 53.6523 51.7676 53.6523H65.5078C66.0352 53.6523 66.4551 54.0723 66.4551 54.5996C66.4551 55.1172 66.0352 55.5469 65.5078 55.5469ZM65.5078 48.3887H51.2891C50.7617 48.3887 50.3418 47.9688 50.3418 47.4414C50.3418 46.9141 50.7617 46.4941 51.2891 46.4941H65.5078C66.0352 46.4941 66.4551 46.9141 66.4551 47.4414C66.4551 47.9688 66.0352 48.3887 65.5078 48.3887ZM65.5078 41.2207H45.0391C44.5117 41.2207 44.0918 40.8008 44.0918 40.2734C44.0918 39.7461 44.5117 39.3262 45.0391 39.3262H65.5176C66.0449 39.3262 66.4648 39.7461 66.4648 40.2734C66.4648 40.8008 66.0352 41.2207 65.5078 41.2207ZM65.5078 34.0625H45.0391C44.5117 34.0625 44.0918 33.6426 44.0918 33.1152C44.0918 32.5879 44.5117 32.168 45.0391 32.168H65.5176C66.0449 32.168 66.4648 32.5879 66.4648 33.1152C66.4648 33.6426 66.0352 34.0625 65.5078 34.0625Z" fill="#E6E6E6"/>
<path d="M24.8633 34.7168C19.7266 35.1953 15.6934 39.5313 15.6934 44.7852C15.6934 50.3613 20.2344 54.9023 25.8105 54.9023C31.0645 54.9023 35.4004 50.8691 35.8789 45.7324H24.8633V34.7168Z" fill="white"/>
<path d="M26.7578 32.7734H25.8105C19.1895 32.7734 13.7988 38.1641 13.7988 44.7852C13.7988 51.4062 19.1895 56.7969 25.8105 56.7969C32.4316 56.7969 37.8223 51.4062 37.8223 44.7852V43.8379H26.7578V32.7734ZM35.8789 45.7422C35.4004 50.8789 31.0645 54.9121 25.8105 54.9121C20.2344 54.9121 15.6934 50.3711 15.6934 44.7949C15.6934 39.541 19.7266 35.2051 24.8633 34.7266V45.7422H35.8789Z" fill="#473BF0"/>
<path d="M29.0234 31.7578V41.0059H38.2715C38.2715 35.8984 34.1309 31.7578 29.0234 31.7578Z" fill="#473BF0"/>
<path d="M13.4863 28.2031C13.4863 28.5113 13.6088 28.8069 13.8267 29.0249C14.0446 29.2428 14.3402 29.3652 14.6484 29.3652C14.9566 29.3652 15.2522 29.2428 15.4702 29.0249C15.6881 28.8069 15.8105 28.5113 15.8105 28.2031C15.8105 27.8949 15.6881 27.5993 15.4702 27.3814C15.2522 27.1635 14.9566 27.041 14.6484 27.041C14.3402 27.041 14.0446 27.1635 13.8267 27.3814C13.6088 27.5993 13.4863 27.8949 13.4863 28.2031Z" fill="white"/>
<path d="M17.2949 28.2031C17.2949 28.5113 17.4174 28.8069 17.6353 29.0249C17.8532 29.2428 18.1488 29.3652 18.457 29.3652C18.7652 29.3652 19.0608 29.2428 19.2788 29.0249C19.4967 28.8069 19.6191 28.5113 19.6191 28.2031C19.6191 27.8949 19.4967 27.5993 19.2788 27.3814C19.0608 27.1635 18.7652 27.041 18.457 27.041C18.1488 27.041 17.8532 27.1635 17.6353 27.3814C17.4174 27.5993 17.2949 27.8949 17.2949 28.2031Z" fill="white"/>
<path d="M21.6895 29.3652H27.6758C27.832 29.3652 27.9492 29.2383 27.9492 29.0918V27.3828C27.9492 27.2266 27.8223 27.1094 27.6758 27.1094H21.6895C21.5332 27.1094 21.416 27.2363 21.416 27.3828V29.0918C21.416 29.248 21.543 29.3652 21.6895 29.3652Z" fill="white"/>
<path d="M89.1504 71.5332C84.5605 71.5332 80.7227 74.8047 79.8438 79.1309H68.5449C67.4023 79.1309 66.5723 78.9062 66.2793 78.5156C66.084 78.252 66.084 77.832 66.084 77.6367V72.6465H76.8164C80.4785 72.6465 83.4473 69.668 83.4473 66.0156V22.9687C83.4473 19.3066 80.4688 16.3379 76.8164 16.3379H7.87109C4.20898 16.3379 1.24023 19.3164 1.24023 22.9687V66.0059C1.24023 69.668 4.21875 72.6367 7.87109 72.6367H62.2852V77.6367C62.2852 78.1055 62.2852 79.5215 63.252 80.8008C64.3164 82.207 66.0938 82.9199 68.5449 82.9199H98.6426V81.0254C98.6426 75.791 94.3848 71.5332 89.1504 71.5332ZM7.87109 68.8574C6.29883 68.8574 5.0293 67.5781 5.0293 66.0156V22.9687C5.0293 21.3965 6.30859 20.127 7.87109 20.127H76.8066C78.3789 20.127 79.6484 21.4062 79.6484 22.9687V66.0059C79.6484 67.5781 78.3691 68.8477 76.8066 68.8477H7.87109V68.8574ZM89.1504 79.1309H83.7695C84.5508 76.9141 86.6699 75.3223 89.1504 75.3223C91.6309 75.3223 93.75 76.9141 94.5312 79.1309H89.1504Z" fill="#473BF0"/>
<path d="M65.5078 32.168H45.0391C44.5117 32.168 44.0918 32.5879 44.0918 33.1152C44.0918 33.6426 44.5117 34.0625 45.0391 34.0625H65.5176C66.0449 34.0625 66.4648 33.6426 66.4648 33.1152C66.4648 32.5879 66.0352 32.168 65.5078 32.168Z" fill="#473BF0"/>
<path d="M65.5078 39.3262H45.0391C44.5117 39.3262 44.0918 39.7461 44.0918 40.2734C44.0918 40.8008 44.5117 41.2207 45.0391 41.2207H65.5176C66.0449 41.2207 66.4648 40.8008 66.4648 40.2734C66.4648 39.7461 66.0352 39.3262 65.5078 39.3262ZM65.5078 46.4941H51.2891C50.7617 46.4941 50.3418 46.9141 50.3418 47.4414C50.3418 47.9687 50.7617 48.3887 51.2891 48.3887H65.5078C66.0352 48.3887 66.4551 47.9687 66.4551 47.4414C66.4551 46.9141 66.0352 46.4941 65.5078 46.4941Z" fill="#1A0F91"/>
<path d="M65.5078 53.6523H51.7676C51.2402 53.6523 50.8203 54.0723 50.8203 54.5996C50.8203 55.1269 51.2402 55.5469 51.7676 55.5469H65.5078C66.0352 55.5469 66.4551 55.1269 66.4551 54.5996C66.4551 54.0723 66.0352 53.6523 65.5078 53.6523Z" fill="#005BFF"/>
</svg>
