<svg width="100" height="100" viewBox="0 0 100 100" fill="none" xmlns="http://www.w3.org/2000/svg">
<g clip-path="url(#clip0_97_12724)">
<path d="M63.3612 24.796L40.7092 6.08462C39.028 4.69575 36.5975 4.69575 34.9161 6.08462L12.2639 24.796C11.218 25.6601 10.6123 26.946 10.6123 28.3024V95.452C10.6123 97.9639 12.6486 100 15.1606 100H60.4647C62.9767 100 65.013 97.9639 65.013 95.452V28.3024C65.013 26.9458 64.4073 25.6601 63.3612 24.796ZM37.8127 29.2339C33.5704 29.2339 30.1311 25.7946 30.1311 21.5522C30.1311 17.3098 33.5704 13.8706 37.8127 13.8706C42.0551 13.8706 45.4944 17.3098 45.4944 21.5522C45.4944 25.7946 42.0551 29.2339 37.8127 29.2339Z" fill="#473BF0"/>
<path d="M60.4647 93.227H15.1606C12.6486 93.227 10.6123 91.1906 10.6123 88.6787V95.4518C10.6123 97.9637 12.6486 100 15.1606 100H60.4647C62.9767 100 65.013 97.9637 65.013 95.4518V88.6787C65.013 91.1906 62.9765 93.227 60.4647 93.227Z" fill="#473BF0"/>
<path d="M63.3615 24.7959L40.7095 6.08457C39.8687 5.39024 38.8409 5.04297 37.813 5.04297V13.8707C42.0554 13.8707 45.4946 17.31 45.4946 21.5524C45.4946 25.7948 42.0554 29.234 37.813 29.234V100H60.465C62.9769 100 65.0132 97.9641 65.0132 95.4521V28.3024C65.0132 26.9457 64.4076 25.66 63.3615 24.7959Z" fill="#473BF0"/>
<path d="M37.8123 32.5109C31.7695 32.5109 26.8535 27.5947 26.8535 21.5521C26.8535 15.5095 31.7697 10.5933 37.8123 10.5933C43.8549 10.5933 48.7711 15.5095 48.7711 21.5521C48.7711 27.5947 43.8551 32.5109 37.8123 32.5109ZM37.8123 17.1476C35.3838 17.1476 33.408 19.1234 33.408 21.5519C33.408 23.9804 35.3838 25.9562 37.8123 25.9562C40.2408 25.9562 42.2166 23.9804 42.2166 21.5519C42.2166 19.1234 40.241 17.1476 37.8123 17.1476Z" fill="#473BF0"/>
<path d="M38.6864 22.8199C38.345 22.8199 37.9975 22.7662 37.6553 22.6527C35.9372 22.0836 35.0057 20.2293 35.5748 18.5111C36.085 16.9711 40.8155 3.38219 49.7008 0.525735C52.1983 -0.277392 56.1054 -0.557471 60.5374 2.66558C61.7626 3.5568 62.8569 4.37594 63.9149 5.16813C71.4517 10.8105 74.2718 12.9217 85.832 11.9383C87.6351 11.7834 89.2218 13.1222 89.3753 14.9258C89.5287 16.7291 88.1912 18.3158 86.3874 18.4691C84.4613 18.633 82.7152 18.7127 81.1179 18.7127C71.0687 18.7129 66.8601 15.5613 59.9864 10.415C58.9462 9.6363 57.8704 8.83102 56.6821 7.96637C54.2888 6.22594 52.6962 6.44743 51.7069 6.76559C46.8313 8.33298 42.818 17.4885 41.7967 20.5723C41.3413 21.9484 40.061 22.8199 38.6864 22.8199Z" fill="#3E3E42"/>
<path d="M20.8726 62.4933V55.8538C20.8726 51.2249 23.912 49.5415 27.8862 49.5415C31.814 49.5415 34.9001 51.2249 34.9001 55.8538V62.4935C34.9001 67.1226 31.814 68.8058 27.8862 68.8058C23.912 68.8056 20.8726 67.1224 20.8726 62.4933ZM30.2243 55.8538C30.2243 54.3109 29.3361 53.6095 27.8862 53.6095C26.4368 53.6095 25.5954 54.3109 25.5954 55.8538V62.4935C25.5954 64.0367 26.437 64.7378 27.8862 64.7378C29.3359 64.7378 30.2243 64.0365 30.2243 62.4935V55.8538ZM49.3947 50.1026C49.3947 50.3831 49.348 50.7105 49.208 50.9909L32.7493 84.7029C32.422 85.4043 31.5337 85.8719 30.6452 85.8719C29.0556 85.8719 28.0269 84.5627 28.0269 83.3937C28.0269 83.1133 28.1204 82.7859 28.2607 82.5054L44.6722 48.7935C45.0462 47.9985 45.7943 47.6245 46.6359 47.6245C47.9451 47.6245 49.3947 48.6065 49.3947 50.1026ZM42.3343 77.5492V70.9095C42.3343 66.2804 45.3734 64.5972 49.348 64.5972C53.2757 64.5972 56.3617 66.2804 56.3617 70.9095V77.5492C56.3617 82.1783 53.2757 83.8615 49.348 83.8615C45.3736 83.8615 42.3343 82.1781 42.3343 77.5492ZM51.6857 70.9095C51.6857 69.3665 50.7974 68.6652 49.3478 68.6652C47.8982 68.6652 47.0568 69.3665 47.0568 70.9095V77.5492C47.0568 79.0922 47.8986 79.7935 49.3478 79.7935C50.797 79.7935 51.6857 79.0922 51.6857 77.5492V70.9095Z" fill="white"/>
</g>
<defs>
<clipPath id="clip0_97_12724">
<rect width="100" height="100" fill="white"/>
</clipPath>
</defs>
</svg>
