<svg width="140" height="140" viewBox="0 0 140 140" fill="none" xmlns="http://www.w3.org/2000/svg">
<path d="M123.84 82.3867C123.69 83.8906 122.309 84.6426 121.133 85.3262C120.039 85.9551 118.946 86.5977 117.866 87.2266C116.116 88.2383 114.379 89.25 112.629 90.2617C110.442 91.5332 108.268 92.8047 106.081 94.0625C103.674 95.457 101.268 96.8652 98.8481 98.2598C96.4282 99.668 94.0082 101.076 91.5747 102.484C89.3461 103.783 87.1313 105.068 84.9028 106.367C83.0844 107.42 81.2797 108.473 79.4614 109.525C78.2719 110.209 77.0825 110.906 75.893 111.59C74.9907 112.109 74.143 112.629 73.1176 112.93C70.4516 113.695 67.4985 113.436 65.0922 112.041C64.2309 111.535 63.3559 111.043 62.4946 110.537C60.9086 109.621 59.3364 108.719 57.7504 107.803C55.6723 106.6 53.5942 105.396 51.5161 104.207C49.1508 102.84 46.7719 101.473 44.4067 100.105C41.9594 98.6973 39.5122 97.2754 37.0649 95.8672C34.7543 94.5273 32.4438 93.2012 30.1196 91.8613L24.2133 88.457C22.8051 87.6367 21.3832 86.8301 19.975 86.0098C19.3325 85.6406 18.6899 85.2715 18.0473 84.8887C17.0356 84.3008 16.0375 83.3711 16.0375 82.1133C16.0375 83.2617 16.0375 84.4102 16.0239 85.5723C16.0239 85.9824 15.9965 86.4062 16.0239 86.8301C16.1059 87.9375 16.9809 88.7988 17.8969 89.3457C18.4575 89.6875 19.0317 90.002 19.6059 90.3301C21.0825 91.1777 22.559 92.0391 24.0356 92.8867C26.1684 94.1172 28.2875 95.3477 30.4204 96.5781C32.9497 98.041 35.4926 99.5039 38.0219 100.967C40.6606 102.498 43.2993 104.016 45.9516 105.547C48.4672 106.996 50.9692 108.445 53.4848 109.895C55.5766 111.098 57.6547 112.301 59.7465 113.504C61.1547 114.324 62.5766 115.131 63.9848 115.951C64.8051 116.416 65.6118 116.949 66.5004 117.277C69.2758 118.289 72.5297 118.07 75.0864 116.58C76.0571 116.02 77.0278 115.445 77.9985 114.885C79.7895 113.846 81.5805 112.807 83.3579 111.768C85.6957 110.414 88.02 109.061 90.3579 107.693C92.9692 106.176 95.5805 104.658 98.1782 103.141L106.012 98.5879C108.35 97.2207 110.688 95.8672 113.039 94.5C114.858 93.4473 116.676 92.3945 118.495 91.3281C119.493 90.7402 120.504 90.166 121.502 89.5781C121.803 89.4004 122.118 89.2227 122.405 89.0176C123.17 88.4434 123.772 87.6504 123.786 86.6523C123.799 86.1465 123.786 85.6543 123.786 85.1484C123.786 84.1504 123.786 83.1387 123.799 82.1406C123.854 82.25 123.854 82.3184 123.84 82.3867C123.84 82.4277 123.84 82.3594 123.84 82.3867Z" fill="#7A9EFD"/>
<path d="M121.898 79.4473C124.496 80.9512 124.51 83.3984 121.926 84.9023L74.8396 112.26C72.2556 113.764 68.031 113.764 65.4334 112.26L18.033 84.9023C15.4353 83.3984 15.4217 80.9512 18.0056 79.4473L65.0916 52.0898C67.6756 50.5859 71.9002 50.5859 74.4978 52.0898L121.898 79.4473Z" fill="#473BF0"/>
<path d="M78.1074 22.2306C77.4102 21.8204 76.5352 22.504 75.9336 22.8595L72.7344 24.7052C71.1348 25.6348 69.5352 26.5509 67.9355 27.4806C66.0625 28.5606 64.1758 29.6544 62.3027 30.7345C60.4023 31.8282 58.502 32.9356 56.6016 34.0294L51.6387 36.9005C50.5039 37.5567 49.3555 38.213 48.2207 38.8829C47.5645 39.2657 46.8535 39.5938 46.334 40.1544C45.6914 40.8516 45.2402 41.8087 45.2402 42.7657V45.6095C45.2402 46.963 45.2539 48.3165 45.2539 49.67C45.2539 51.4473 45.2676 53.2247 45.2676 55.002C45.2676 57.0665 45.2813 59.1309 45.2813 61.1817C45.2813 63.3829 45.2949 65.5841 45.2949 67.7852C45.2949 70.0001 45.3086 72.2149 45.3086 74.4434C45.3086 76.5352 45.3223 78.627 45.3223 80.7188C45.3223 82.5372 45.3359 84.3555 45.3359 86.1739C45.3359 87.5958 45.3496 89.0313 45.3496 90.4532C45.3496 91.3419 45.3496 92.2306 45.3633 93.1056C45.3633 93.7891 45.2813 94.6095 45.9512 95.0196C46.6074 95.4161 47.2773 95.7852 47.9336 96.1681C47.291 95.7989 47.3867 94.9102 47.3867 94.254C47.3867 93.3927 47.3867 92.5313 47.373 91.67C47.373 90.3028 47.3594 88.9356 47.3594 87.5821C47.3594 85.8321 47.3457 84.0958 47.3457 82.3458C47.3457 80.336 47.332 78.3263 47.332 76.3165C47.332 74.17 47.3184 72.0372 47.3184 69.8907C47.3184 67.7442 47.3047 65.6114 47.3047 63.4649C47.3047 61.4278 47.291 59.3907 47.291 57.3673C47.291 55.5763 47.2773 53.7852 47.2773 51.9806C47.2773 50.5587 47.2637 49.1368 47.2637 47.7149C47.2637 46.7716 47.2637 45.8419 47.25 44.8985C47.25 44.4747 47.2227 44.0509 47.2637 43.627C47.3867 42.4649 48.1113 41.2891 49.1094 40.7013L49.6016 40.4141C50.5039 39.8946 51.3926 39.3751 52.2949 38.8692C53.7578 38.0216 55.2207 37.1876 56.6699 36.3399C58.4473 35.3145 60.2383 34.2891 62.0156 33.2501C63.875 32.1837 65.7344 31.1036 67.5801 30.0372C69.2891 29.0528 70.9844 28.0684 72.6934 27.0841C74.0059 26.3184 75.3184 25.5665 76.6445 24.8009C77.3281 24.4044 78.0117 24.0079 78.6953 23.6251C79.1328 23.379 79.666 23.1466 80.1445 23.42C79.4473 23.0098 78.7773 22.6134 78.1074 22.2306Z" fill="#2A2ABC"/>
<path d="M78.8047 23.5292C79.8301 22.9414 80.6641 23.4199 80.6641 24.5957L80.8144 75.6601C80.8144 76.8359 79.9805 78.2714 78.9687 78.8593L49.2324 96.0175C48.207 96.6054 47.373 96.1269 47.373 94.9648L47.2227 43.9003C47.2227 42.7246 48.0566 41.289 49.0684 40.7011L78.8047 23.5292Z" fill="#1A0F91"/>
<path d="M72.4473 44.6385C72.9531 44.3377 73.377 44.5838 73.377 45.1717C73.377 45.7596 72.9668 46.4705 72.4609 46.7713L54.2773 57.2713C53.7715 57.5721 53.3477 57.326 53.3477 56.7381C53.3477 56.1502 53.7578 55.4392 54.2637 55.1385L72.4473 44.6385Z" fill="#2828CE"/>
<path d="M74.4436 46.3888C74.594 46.3342 74.7854 46.3205 74.9358 46.4025L73.6643 45.6642C73.3499 45.4865 73.1311 45.4318 72.7893 45.6096C72.4749 45.7736 72.1741 45.965 71.8733 46.1428C70.1917 47.1135 68.4964 48.0978 66.8147 49.0685C64.6135 50.34 62.426 51.6115 60.2249 52.8693C58.6116 53.799 56.9846 54.7424 55.3714 55.6721C55.0979 55.8224 54.8245 55.9728 54.5647 56.1369C54.0315 56.4924 53.5667 57.2853 53.7307 57.9416C53.7991 58.2013 53.9768 58.2971 54.1956 58.4201L54.9749 58.8713C55.1253 58.967 55.2893 59.049 55.4397 59.1447C54.8245 58.7892 55.3303 57.7228 55.6448 57.34C55.7952 57.1623 55.9729 57.0256 56.1643 56.9025C56.4651 56.7248 56.7796 56.5471 57.094 56.3693C58.4749 55.5763 59.8421 54.7834 61.2229 53.9904L66.76 50.7912C68.428 49.8205 70.096 48.8635 71.7639 47.8928C72.3245 47.5783 72.8714 47.2502 73.4319 46.9357C73.6096 46.84 73.7874 46.7306 73.9651 46.6349C74.0198 46.6076 74.2112 46.5392 74.2385 46.4709C74.2385 46.4572 74.2659 46.4572 74.2796 46.4572L73.7874 46.1701L74.0745 46.3342C74.2659 46.4572 74.2385 46.4709 74.4436 46.3888Z" fill="#ACC5EA"/>
<path d="M72.4473 37.8572C72.9531 37.5564 73.377 37.8025 73.377 38.3904C73.377 38.9783 72.9668 39.6893 72.4609 39.99L54.2773 50.49C53.7715 50.7908 53.3477 50.5447 53.3477 49.9568C53.3477 49.3689 53.7578 48.658 54.2637 48.3572L72.4473 37.8572Z" fill="#2828CE"/>
<path d="M74.2793 46.4705C74.7852 46.1697 75.209 46.4158 75.209 47.0037C75.209 47.5916 74.7988 48.3025 74.293 48.6033L56.1094 59.1033C55.6035 59.4041 55.1797 59.158 55.1797 58.5701C55.1797 57.9822 55.5898 57.2713 56.0957 56.9705L74.2793 46.4705Z" fill="white"/>
<path d="M74.4436 39.6076C74.594 39.5529 74.7854 39.5392 74.9358 39.6213L73.6643 38.883C73.3499 38.7053 73.1311 38.6506 72.7893 38.8283C72.4749 38.9924 72.1741 39.1838 71.8733 39.3615C70.1917 40.3322 68.4964 41.3166 66.8147 42.2873C64.6135 43.5588 62.426 44.8303 60.2249 46.0881C58.6116 47.0178 56.9846 47.9611 55.3714 48.8908C55.0979 49.0412 54.8245 49.1916 54.5647 49.3556C54.0315 49.7111 53.5667 50.5041 53.7307 51.1603C53.7991 51.4201 53.9768 51.5158 54.1956 51.6389L54.9749 52.09C55.1253 52.1857 55.2893 52.2678 55.4397 52.3635C54.8245 52.008 55.3303 50.9416 55.6448 50.5588C55.7952 50.381 55.9729 50.2443 56.1643 50.1213C56.4651 49.9435 56.7796 49.7658 57.094 49.5881C58.4749 48.7951 59.8421 48.0021 61.2229 47.2092L66.76 44.0099C68.428 43.0392 70.096 42.0822 71.7639 41.1115C72.3245 40.7971 72.8714 40.4689 73.4319 40.1545C73.6096 40.0588 73.7874 39.9494 73.9651 39.8537C74.0198 39.8263 74.2112 39.758 74.2385 39.6896C74.2385 39.676 74.2659 39.676 74.2796 39.676L73.7874 39.3889L74.0745 39.5529C74.2659 39.676 74.2385 39.676 74.4436 39.6076Z" fill="#ACC5EA"/>
<path d="M64.4082 56.3553C64.9141 56.0545 65.3379 56.3006 65.3379 56.8885C65.3379 57.4764 64.9277 58.1873 64.4082 58.4881L54.2637 64.3533C53.7578 64.6541 53.334 64.408 53.334 63.8201C53.334 63.2322 53.7441 62.5213 54.25 62.2205L64.4082 56.3553Z" fill="#2828CE"/>
<path d="M74.2793 39.6756C74.7852 39.3748 75.209 39.6209 75.209 40.2088C75.209 40.7967 74.7988 41.5076 74.293 41.8084L56.1094 52.3084C55.6035 52.6092 55.1797 52.3631 55.1797 51.7752C55.1797 51.1873 55.5898 50.4764 56.0957 50.1756L74.2793 39.6756Z" fill="white"/>
<path d="M65.4201 57.258C65.0236 57.0392 64.4357 57.5041 64.1076 57.6955L61.7697 59.049C59.8419 60.1564 57.9142 61.2775 55.9865 62.3849C55.5216 62.6447 55.0705 62.9181 54.6056 63.1779L55.0978 63.465C54.9747 63.3966 54.7833 63.2189 54.6466 63.2052C54.4689 63.1779 54.2365 63.4787 54.1271 63.6154C53.84 63.9845 53.5802 64.5724 53.7306 65.0509C53.84 65.3927 54.2638 65.5431 54.5372 65.7072C54.838 65.8849 55.1388 66.049 55.4259 66.2267C55.0431 66.008 55.1388 65.4337 55.2482 65.092C55.3849 64.7091 55.631 64.3537 55.9591 64.1076C56.0958 64.0119 56.2462 63.9298 56.383 63.8478C57.1349 63.4103 57.9005 62.9728 58.6525 62.5353C60.758 61.3185 62.8497 60.1154 64.9552 58.8986C65.297 58.7072 65.6251 58.5158 65.9669 58.3107C66.2404 58.1603 66.5685 57.9142 66.883 58.0919C66.4044 57.8322 65.9122 57.5451 65.4201 57.258Z" fill="#ACC5EA"/>
<path d="M66.2266 58.1736C66.7324 57.8728 67.1563 58.1189 67.1563 58.7068C67.1563 59.2947 66.7461 60.0057 66.2266 60.3064L56.082 66.1717C55.5762 66.4725 55.1523 66.2264 55.1523 65.6385C55.1523 65.0506 55.5625 64.3396 56.0684 64.0389L66.2266 58.1736Z" fill="white"/>
<path d="M92.1074 65.6387C91.3828 65.2286 90.4395 65.9669 89.8242 66.3223C88.6348 67.0059 87.4453 67.6895 86.2559 68.3868C84.6016 69.3438 82.9473 70.3008 81.293 71.2442C79.6387 72.2012 77.9844 73.1583 76.3301 74.1016C75.127 74.7989 73.9102 75.4961 72.707 76.1934C71.8457 76.6993 71.0391 77.1094 70.4648 77.9844C70.041 78.6407 69.8086 79.3653 69.8086 80.1446V81.5801C69.8086 83.3985 69.8223 85.2032 69.8223 87.0215C69.8223 88.6622 69.8359 90.3028 69.8359 91.9434V92.8047C69.8496 93.3516 70.0547 93.7618 70.5332 94.0352C70.9023 94.254 71.2852 94.4727 71.6543 94.6915C71.9004 94.8418 72.1465 94.9786 72.4062 95.129C71.8867 94.8282 71.873 94.1993 71.8594 93.6524V92.1622C71.8594 90.4668 71.8457 88.7852 71.8457 87.0899C71.8457 85.504 71.832 83.9043 71.832 82.3184V81.2383C71.832 80.254 72.2832 79.2833 72.9531 78.5723C73.4727 78.0254 74.1973 77.6837 74.8535 77.3008C76.002 76.6446 77.1367 75.9747 78.2852 75.3184C79.8164 74.4297 81.3477 73.5547 82.8652 72.6661C84.4238 71.7637 85.9961 70.8614 87.5547 69.959C88.7715 69.2481 89.9883 68.5508 91.2188 67.8399C91.7383 67.5391 92.2578 67.2247 92.791 66.9376C93.1875 66.7188 93.6934 66.5684 94.1172 66.8008C93.4609 66.418 92.791 66.0352 92.1074 65.6387Z" fill="#407BFF"/>
<path d="M92.8184 66.9373C93.8438 66.3494 94.6777 66.8143 94.6777 67.9901L94.7187 80.7459C94.7187 81.9217 93.8984 83.3573 92.873 83.9451L73.7461 94.9783C72.7207 95.5662 71.8867 95.0877 71.8867 93.9256L71.8457 81.1698C71.8457 79.994 72.666 78.5584 73.6914 77.9705L92.8184 66.9373Z" fill="#006DF0"/>
<path d="M88.416 78.8731L86.9941 78.0527C86.9805 78.0391 86.9668 78.0391 86.9531 78.0117L88.375 78.832C88.3887 78.8594 88.4023 78.8731 88.416 78.8731Z" fill="#674611"/>
<path d="M87.9512 78.2441L86.5293 77.4238L86.9531 78.0117L88.375 78.8457L87.9512 78.2441Z" fill="#E8CFAC"/>
<path d="M88.3069 73.4042C88.4983 73.2948 88.6213 73.4588 88.5256 73.7049L87.2405 77.0272C87.1994 77.1503 87.1037 77.246 87.0217 77.3006C86.9397 77.3553 86.8576 77.3553 86.803 77.287L86.3791 76.6854L82.51 81.4979C82.4416 81.5799 82.3596 81.6483 82.2912 81.703C82.1408 81.785 81.9905 81.785 81.9084 81.6756L80.8147 80.1444L76.9729 84.9295C76.9045 85.0116 76.8225 85.0799 76.7541 85.1346C76.6037 85.2303 76.4533 85.2167 76.3713 85.1073C76.2483 84.9295 76.3166 84.5741 76.5354 84.3143L80.76 79.0506C80.8283 78.9686 80.9104 78.9003 80.9787 78.8456C81.1291 78.7499 81.2795 78.7635 81.3615 78.8729L82.4553 80.4042L85.928 76.0702L85.5041 75.4686C85.4084 75.3319 85.5315 75.0311 85.7092 74.9217L88.3069 73.4042Z" fill="#C68620"/>
<path d="M82.6055 81.1289L84.0273 81.9492L87.5 77.6152L87.0762 77.0137L85.6543 76.1934L86.0781 76.7812L82.6055 81.1289Z" fill="#E8CFAC"/>
<path d="M90.043 74.9492L89.3184 74.5254L88.6211 74.1152H88.6074H88.5937H88.5801H88.5664H88.5527H88.5117H88.498H88.4844H88.4707C88.457 74.1152 88.4434 74.1289 88.4297 74.1289L85.8457 75.6328C85.8184 75.6465 85.791 75.6738 85.7637 75.6875L85.7363 75.7148L85.7227 75.7285C85.7227 75.7422 85.709 75.7422 85.709 75.7559C85.709 75.7695 85.6953 75.7695 85.6953 75.7832C85.6953 75.7969 85.6816 75.7969 85.6816 75.8106V75.8242C85.6816 75.8379 85.668 75.8379 85.668 75.8516C85.668 75.8652 85.668 75.8652 85.6543 75.8789C85.6543 75.8926 85.6543 75.8926 85.6406 75.9063C85.6406 75.9199 85.6406 75.9199 85.6269 75.9336C85.6269 75.9473 85.627 75.9473 85.6133 75.9609C85.6133 75.9746 85.6133 75.9746 85.5996 75.9883V76.1113C85.5996 76.1387 85.6133 76.166 85.6269 76.1797L87.0488 77C87.0352 76.9863 87.0215 76.959 87.0215 76.9316V76.9043V76.8496V76.7949C87.0352 76.7402 87.0488 76.6855 87.0762 76.6445C87.0898 76.6172 87.1035 76.5898 87.1172 76.5762C87.1309 76.5625 87.1445 76.5352 87.1719 76.5215C87.1992 76.4941 87.2266 76.4805 87.2539 76.4668L89.8379 74.9629C89.8516 74.9492 89.8652 74.9492 89.8789 74.9355H89.8926C89.9062 74.9355 89.9199 74.9219 89.9336 74.9219H89.9746C90.0156 74.9492 90.0293 74.9492 90.043 74.9492ZM83.4805 83.2207L82.3867 81.6895L80.9648 80.8691L82.0586 82.4004C82.0723 82.4277 82.0996 82.4551 82.127 82.4688L83.5488 83.2891C83.5215 83.2754 83.4941 83.2481 83.4805 83.2207Z" fill="#E8CFAC"/>
<path d="M81.4297 79.5293C81.416 79.5293 81.416 79.5156 81.4023 79.5156C81.3887 79.5156 81.3887 79.5156 81.375 79.502H81.3066H81.293H81.2793C81.2656 79.502 81.252 79.5019 81.2383 79.5156C81.2383 79.5156 81.2246 79.5156 81.2246 79.5293H81.2109H81.1973C81.1699 79.543 81.1563 79.543 81.1289 79.5566C81.1016 79.5703 81.0605 79.5977 81.0332 79.625L81.0059 79.6523L80.9785 79.6797L80.9238 79.7344L80.8965 79.7617L76.6719 85.0254L78.0937 85.8457L82.3184 80.582C82.3457 80.541 82.3867 80.5137 82.4141 80.4727L82.4414 80.4453C82.4687 80.418 82.5098 80.3906 82.5371 80.377L82.6191 80.3359H82.6328C82.6602 80.3223 82.6875 80.3223 82.7012 80.3223H82.7695C82.7969 80.3223 82.8105 80.3359 82.8379 80.3496L81.4297 79.5293ZM76.6172 85.0801C76.6035 85.0937 76.6035 85.1074 76.5898 85.1211V85.1348C76.5898 85.1484 76.5762 85.1484 76.5762 85.1621C76.5625 85.1758 76.5625 85.1895 76.5488 85.2031C76.5488 85.2168 76.5352 85.2305 76.5352 85.2441C76.5352 85.2578 76.5215 85.2578 76.5215 85.2715C76.5215 85.2852 76.5078 85.2988 76.5078 85.3125C76.5078 85.3262 76.4941 85.3398 76.4941 85.3535C76.4941 85.3672 76.4805 85.3809 76.4805 85.3945C76.4805 85.4082 76.4668 85.4355 76.4668 85.4492V85.4629C76.4668 85.4766 76.4668 85.4902 76.4531 85.5039V85.6816C76.4668 85.7227 76.4805 85.7773 76.5078 85.8047C76.5215 85.832 76.5488 85.8594 76.5762 85.873L77.998 86.6934C77.9707 86.6797 77.9434 86.6523 77.9297 86.625C77.9023 86.584 77.8887 86.543 77.875 86.502V86.4883C77.8613 86.4473 77.8613 86.3926 77.875 86.3379C77.875 86.3242 77.875 86.2969 77.8887 86.2832V86.2695C77.9023 86.2285 77.9023 86.2012 77.916 86.1602C77.9297 86.1191 77.9434 86.0918 77.957 86.0508C77.9707 86.0098 77.998 85.9824 78.0117 85.9414C78.0391 85.9004 78.0527 85.8731 78.0801 85.8457L76.6582 85.0254L76.6445 85.0391C76.6445 85.0527 76.6309 85.0664 76.6172 85.0801Z" fill="#E8CFAC"/>
<path d="M89.8655 74.9764C90.0569 74.8671 90.1799 75.0311 90.0842 75.2772L88.799 78.5995C88.758 78.7225 88.6623 78.8182 88.5803 78.8729C88.4983 78.9276 88.4162 78.9276 88.3615 78.8592L87.9377 78.2577L84.0823 83.0565C84.0139 83.1385 83.9319 83.2069 83.8635 83.2616C83.7131 83.3573 83.5627 83.3436 83.4807 83.2342L82.3869 81.703L78.5451 86.4881C78.4768 86.5702 78.3948 86.6385 78.3264 86.6932C78.176 86.7889 78.0256 86.7753 77.9436 86.6659C77.8205 86.4881 77.8889 86.1327 78.1076 85.8729L82.3323 80.6092C82.4006 80.5272 82.4826 80.4588 82.551 80.4042C82.7014 80.3085 82.8518 80.3221 82.9338 80.4315L84.0276 81.9628L87.5002 77.6288L87.0764 77.0272C86.9807 76.8905 87.1037 76.5897 87.2815 76.4803L89.8655 74.9764Z" fill="white"/>
</svg>
