<svg width="80" height="80" viewBox="0 0 80 80" fill="none" xmlns="http://www.w3.org/2000/svg">
<path d="M36.7568 44.2105C47.716 44.2105 56.2163 32.3281 56.2163 22.1053V18.7045C56.2163 8.3915 47.4861 0 36.7568 0C26.0276 0 17.2974 8.3915 17.2974 18.7045V22.1053C17.2974 32.3281 25.7976 44.2105 36.7568 44.2105Z" fill="#1D1B29"/>
<path opacity="0.5" d="M80.0002 60.4966L78.98 48.4209L75.2493 52.5974C72.7341 50.39 69.5539 49.169 66.1583 49.169C58.5605 49.169 52.3433 55.3671 51.8921 63.1577H55.2608C55.7204 57.3888 60.5185 52.6727 66.1583 52.6727C68.6852 52.6727 71.0523 53.5679 72.9479 55.1762L68.7442 59.8817L80.0002 60.4966Z" fill="#1D1B29"/>
<path opacity="0.5" d="M76.6332 65.2632C76.1735 71.0321 71.3755 75.7482 65.7357 75.7482C63.2087 75.7482 60.8417 74.853 58.9461 73.2448L63.1498 68.5392L51.8921 67.9243L52.9123 80L56.643 75.8235C59.1582 78.0309 62.3384 79.252 65.734 79.252C73.3318 79.252 79.549 73.0538 80.0002 65.2632H76.6332Z" fill="#1D1B29"/>
<path d="M47.6636 65.6843C47.6636 60.2426 50.1386 55.3651 54.0541 51.9748C49.1853 51.1445 43.4621 50.5264 37.0717 50.5264C25.5036 50.5264 16.0203 52.5272 10.1012 54.2064C4.06023 55.9209 0 61.1133 0 67.1259V74.1053C0 75.035 0.789097 75.7895 1.76532 75.7895H47.6636V65.6843Z" fill="#1D1B29"/>
</svg>
