<svg width="75" height="75" viewBox="0 0 75 75" fill="none" xmlns="http://www.w3.org/2000/svg">
<path opacity="0.4" d="M44.585 41.7939H32.5615C31.7319 41.7939 31.0586 42.5154 31.0586 43.4042V72.3894C31.0586 73.2783 31.7319 73.9997 32.5615 73.9997H44.585C45.4146 73.9997 46.088 73.2783 46.088 72.3894V43.4042C46.088 42.5154 45.4146 41.7939 44.585 41.7939Z" fill="#1D1B29" stroke="#1D1B29"/>
<path opacity="0.3" d="M14.5264 58.9707H2.50294C1.67332 58.9707 1 59.644 1 60.4736V72.4971C1 73.3268 1.67332 74.0001 2.50294 74.0001H14.5264C15.356 74.0001 16.0294 73.3268 16.0294 72.4971V60.4736C16.0294 59.644 15.356 58.9707 14.5264 58.9707Z" fill="#1D1B29" stroke="#1D1B29"/>
<path opacity="0.7" d="M72.4971 26.7646H60.4736C59.644 26.7646 58.9707 27.47 58.9707 28.3392V72.4253C58.9707 73.2944 59.644 73.9998 60.4736 73.9998H72.4971C73.3268 73.9998 74.0001 73.2944 74.0001 72.4253V28.3392C74.0001 27.47 73.3268 26.7646 72.4971 26.7646Z" fill="#1D1B29" stroke="#1D1B29"/>
<path d="M38.357 25.7591L57.9328 6.38151V16.7631C57.9328 17.6332 58.6462 18.3394 59.5253 18.3394C60.4043 18.3394 61.1177 17.6332 61.1177 16.7631V2.57631C61.1177 1.70619 60.4043 1 59.5253 1H45.1933C44.3143 1 43.6009 1.70619 43.6009 2.57631C43.6009 3.44643 44.3143 4.15262 45.1933 4.15262H55.6811L37.2311 22.4157L25.6175 10.9197C24.9948 10.3034 23.9884 10.3034 23.3658 10.9197L7.44141 26.6828L9.69311 28.9117L24.4916 14.2631L36.1053 25.7591C36.7279 26.3754 37.7344 26.3754 38.357 25.7591Z" fill="#1D1B29" stroke="#1D1B29"/>
</svg>
